<svg xmlns="http://www.w3.org/2000/svg" width="44.798" height="29.952" viewBox="0 0 44.798 29.952" fill="none">
  <path d="M 16.715 8.938 L 16.715 6.233 C 16.976 6.215 17.238 6.2 17.505 6.192 C 24.83 5.958 29.635 12.55 29.635 12.55 C 29.635 12.55 24.445 19.833 18.881 19.833 C 18.08 19.833 17.362 19.703 16.715 19.483 L 16.715 11.278 C 19.567 11.627 20.14 12.898 21.854 15.785 L 25.666 12.537 C 25.666 12.537 22.883 8.848 18.192 8.848 C 17.682 8.848 17.194 8.885 16.714 8.937 L 16.715 8.938 Z M 16.714 0 L 16.714 4.042 C 16.976 4.02 17.24 4.003 17.504 3.993 C 27.688 3.647 34.325 12.433 34.325 12.433 C 34.325 12.433 26.704 21.797 18.762 21.797 C 18.035 21.797 17.354 21.728 16.714 21.615 L 16.714 24.113 C 17.261 24.183 17.829 24.225 18.419 24.225 C 25.808 24.225 31.153 20.413 36.327 15.9 C 37.185 16.593 40.697 18.282 41.42 19.022 C 36.499 23.183 25.034 26.537 18.533 26.537 C 17.906 26.537 17.304 26.498 16.714 26.442 L 16.714 29.952 L 44.798 29.952 L 44.798 0.002 L 16.715 0.002 L 16.714 0 Z M 16.714 19.482 L 16.714 21.615 C 9.879 20.383 7.982 13.207 7.982 13.207 C 7.982 13.207 11.263 9.533 16.714 8.938 L 16.714 11.278 C 16.714 11.278 16.707 11.278 16.704 11.278 C 13.843 10.932 11.61 13.632 11.61 13.632 C 11.61 13.632 12.862 18.177 16.715 19.485 L 16.714 19.482 Z M 4.578 12.898 C 4.578 12.898 8.627 6.86 16.715 6.235 L 16.715 4.045 C 7.758 4.772 0 12.437 0 12.437 C 0 12.437 4.393 25.27 16.715 26.445 L 16.715 24.117 C 7.672 22.967 4.578 12.898 4.578 12.898 L 4.578 12.898 Z" fill="currentColor" fill-rule="nonzero"></path>
</svg>