<svg xmlns="http://www.w3.org/2000/svg" width="103.951" height="19.687" viewBox="0 0 103.951 19.687" fill="none">
  <path d="M 43.229 0.027 L 43.229 19.687 L 48.726 19.687 L 48.726 0.027 L 43.229 0.027 L 43.229 0.027 Z M 0 0 L 0 19.687 L 5.544 19.687 L 5.544 4.405 L 9.87 4.42 C 11.291 4.42 12.276 4.765 12.961 5.503 C 13.83 6.44 14.185 7.948 14.185 10.708 L 14.185 19.687 L 19.556 19.687 L 19.556 8.81 C 19.556 1.047 14.658 0 9.868 0 L 0 0 Z M 52.078 0.027 L 52.078 19.685 L 60.99 19.685 C 65.739 19.685 67.288 18.887 68.966 17.098 C 70.15 15.842 70.916 13.085 70.916 10.072 C 70.916 7.308 70.268 4.843 69.138 3.308 C 67.102 0.563 64.169 0.027 59.789 0.027 L 52.078 0.027 L 52.078 0.027 Z M 57.528 4.307 L 59.89 4.307 C 63.318 4.307 65.535 5.862 65.535 9.897 C 65.535 13.932 63.318 15.488 59.89 15.488 L 57.528 15.488 L 57.528 4.307 Z M 35.306 0.027 L 30.72 15.607 L 26.326 0.027 L 20.394 0.027 L 26.671 19.685 L 34.59 19.685 L 40.916 0.027 L 35.308 0.027 L 35.306 0.027 Z M 73.473 19.685 L 78.969 19.685 L 78.969 0.027 L 73.471 0.027 L 73.471 19.685 L 73.473 19.685 Z M 88.878 0.033 L 81.204 19.678 L 86.623 19.678 L 87.837 16.207 L 96.918 16.207 L 98.068 19.678 L 103.951 19.678 L 96.219 0.032 L 88.878 0.032 L 88.878 0.033 Z M 92.445 3.618 L 95.774 12.822 L 89.01 12.822 L 92.445 3.618 Z" fill="currentColor" fill-rule="nonzero"></path>
</svg>